<svg width="544" height="1135" viewBox="0 0 544 1135" fill="none" xmlns="http://www.w3.org/2000/svg">
<path d="M486.93 978.051C487.51 978.642 488.46 978.651 489.051 978.07L498.683 968.611C499.274 968.03 499.282 967.081 498.702 966.49C498.122 965.899 497.172 965.89 496.581 966.471L488.019 974.879L479.611 966.317C479.03 965.726 478.081 965.718 477.49 966.298C476.899 966.878 476.89 967.828 477.471 968.419L486.93 978.051ZM489.5 644.986L486.5 976.986L489.5 977.014L492.5 645.014L489.5 644.986Z" fill="black"/>
<path d="M444.939 1067.06C445.525 1067.65 446.475 1067.65 447.061 1067.06L456.607 1057.51C457.192 1056.93 457.192 1055.98 456.607 1055.39C456.021 1054.81 455.071 1054.81 454.485 1055.39L446 1063.88L437.515 1055.39C436.929 1054.81 435.979 1054.81 435.393 1055.39C434.808 1055.98 434.808 1056.93 435.393 1057.51L444.939 1067.06ZM444.5 622V1066H447.5V622H444.5Z" fill="black"/>
<path d="M391.928 1134.05C392.508 1134.64 393.458 1134.65 394.05 1134.07L403.694 1124.63C404.286 1124.05 404.296 1123.1 403.716 1122.5C403.136 1121.91 402.187 1121.9 401.595 1122.48L393.022 1130.88L384.625 1122.31C384.046 1121.71 383.096 1121.7 382.504 1122.28C381.912 1122.86 381.902 1123.81 382.482 1124.41L391.928 1134.05ZM396.5 650.984L391.5 1132.98L394.5 1133.02L399.5 651.016L396.5 650.984Z" fill="black"/>
<ellipse cx="405.5" cy="271" rx="405.5" ry="380" fill="#ED3EFC"/>
<ellipse cx="438" cy="224.5" rx="348" ry="333.5" fill="#DAFC08"/>
</svg>
